<mxfile host="app.diagrams.net" agent="Mozilla/5.0 (Windows NT 10.0; Win64; x64) AppleWebKit/537.36 (KHTML, like Gecko) Chrome/138.0.0.0 Safari/537.36" version="27.1.5">
  <diagram name="第 1 页" id="P5BPJvOSAf2zRleEovu-">
    <mxGraphModel dx="2066" dy="1117" grid="1" gridSize="10" guides="1" tooltips="1" connect="1" arrows="1" fold="1" page="1" pageScale="1" pageWidth="827" pageHeight="1169" math="0" shadow="0">
      <root>
        <mxCell id="0" />
        <mxCell id="1" parent="0" />
        <mxCell id="0hcNvHeENjwm99F8SwKc-10" style="edgeStyle=orthogonalEdgeStyle;rounded=0;orthogonalLoop=1;jettySize=auto;html=1;entryX=0.5;entryY=0;entryDx=0;entryDy=0;strokeWidth=7;" edge="1" parent="1" source="0hcNvHeENjwm99F8SwKc-2" target="0hcNvHeENjwm99F8SwKc-3">
          <mxGeometry relative="1" as="geometry" />
        </mxCell>
        <mxCell id="0hcNvHeENjwm99F8SwKc-2" value="&lt;font style=&quot;font-size: 36px;&quot;&gt;現況盤點與問題描述&lt;/font&gt;" style="rounded=1;whiteSpace=wrap;html=1;" vertex="1" parent="1">
          <mxGeometry x="250" y="200" width="380" height="60" as="geometry" />
        </mxCell>
        <mxCell id="0hcNvHeENjwm99F8SwKc-11" style="edgeStyle=orthogonalEdgeStyle;rounded=0;orthogonalLoop=1;jettySize=auto;html=1;strokeWidth=7;" edge="1" parent="1" source="0hcNvHeENjwm99F8SwKc-3" target="0hcNvHeENjwm99F8SwKc-4">
          <mxGeometry relative="1" as="geometry" />
        </mxCell>
        <mxCell id="0hcNvHeENjwm99F8SwKc-3" value="&lt;font style=&quot;font-size: 36px;&quot;&gt;收集與整理資料&lt;/font&gt;" style="rounded=1;whiteSpace=wrap;html=1;" vertex="1" parent="1">
          <mxGeometry x="250" y="330" width="380" height="60" as="geometry" />
        </mxCell>
        <mxCell id="0hcNvHeENjwm99F8SwKc-12" style="edgeStyle=orthogonalEdgeStyle;rounded=0;orthogonalLoop=1;jettySize=auto;html=1;entryX=0.5;entryY=0;entryDx=0;entryDy=0;strokeWidth=7;" edge="1" parent="1" source="0hcNvHeENjwm99F8SwKc-4" target="0hcNvHeENjwm99F8SwKc-5">
          <mxGeometry relative="1" as="geometry" />
        </mxCell>
        <mxCell id="0hcNvHeENjwm99F8SwKc-4" value="&lt;font style=&quot;font-size: 36px;&quot;&gt;行為特性分析&lt;/font&gt;" style="rounded=1;whiteSpace=wrap;html=1;" vertex="1" parent="1">
          <mxGeometry x="250" y="460" width="380" height="60" as="geometry" />
        </mxCell>
        <mxCell id="0hcNvHeENjwm99F8SwKc-13" style="edgeStyle=orthogonalEdgeStyle;rounded=0;orthogonalLoop=1;jettySize=auto;html=1;strokeWidth=7;" edge="1" parent="1" source="0hcNvHeENjwm99F8SwKc-5" target="0hcNvHeENjwm99F8SwKc-6">
          <mxGeometry relative="1" as="geometry" />
        </mxCell>
        <mxCell id="0hcNvHeENjwm99F8SwKc-5" value="&lt;font style=&quot;font-size: 36px;&quot;&gt;政策成效評估&lt;/font&gt;" style="rounded=1;whiteSpace=wrap;html=1;" vertex="1" parent="1">
          <mxGeometry x="250" y="585" width="380" height="60" as="geometry" />
        </mxCell>
        <mxCell id="0hcNvHeENjwm99F8SwKc-6" value="&lt;font style=&quot;font-size: 36px;&quot;&gt;結論和後續建議&lt;/font&gt;" style="rounded=1;whiteSpace=wrap;html=1;" vertex="1" parent="1">
          <mxGeometry x="250" y="710" width="380" height="60" as="geometry" />
        </mxCell>
        <mxCell id="0hcNvHeENjwm99F8SwKc-9" style="edgeStyle=orthogonalEdgeStyle;rounded=0;orthogonalLoop=1;jettySize=auto;html=1;entryX=0.5;entryY=0;entryDx=0;entryDy=0;strokeWidth=7;" edge="1" parent="1" source="0hcNvHeENjwm99F8SwKc-8" target="0hcNvHeENjwm99F8SwKc-2">
          <mxGeometry relative="1" as="geometry" />
        </mxCell>
        <mxCell id="0hcNvHeENjwm99F8SwKc-8" value="&lt;font style=&quot;font-size: 36px;&quot;&gt;文獻回顧&lt;/font&gt;" style="rounded=1;whiteSpace=wrap;html=1;" vertex="1" parent="1">
          <mxGeometry x="250" y="80" width="380" height="60" as="geometry" />
        </mxCell>
      </root>
    </mxGraphModel>
  </diagram>
</mxfile>
